<svg xmlns="http://www.w3.org/2000/svg" viewBox="0 0 100 100" width="100" height="100">
  <defs>
    <linearGradient id="grad1" x1="0%" y1="0%" x2="100%" y2="100%">
      <stop offset="0%" style="stop-color:#3b82f6;stop-opacity:1" />
      <stop offset="100%" style="stop-color:#06b6d4;stop-opacity:1" />
    </linearGradient>
  </defs>
  
  <!-- Satellite body -->
  <rect x="35" y="40" width="30" height="20" rx="3" fill="url(#grad1)"/>
  
  <!-- Solar panels -->
  <rect x="20" y="35" width="12" height="30" rx="2" fill="#60a5fa"/>
  <rect x="68" y="35" width="12" height="30" rx="2" fill="#60a5fa"/>
  
  <!-- Antenna -->
  <circle cx="50" cy="30" r="3" fill="#fbbf24"/>
  <line x1="50" y1="30" x2="50" y2="20" stroke="#fbbf24" stroke-width="2"/>
  
  <!-- Signal waves -->
  <path d="M 35 15 Q 50 5 65 15" stroke="#06b6d4" stroke-width="2" fill="none" opacity="0.7"/>
  <path d="M 30 20 Q 50 8 70 20" stroke="#06b6d4" stroke-width="2" fill="none" opacity="0.5"/>
  <path d="M 25 25 Q 50 10 75 25" stroke="#06b6d4" stroke-width="2" fill="none" opacity="0.3"/>
  
  <!-- Earth representation -->
  <circle cx="50" cy="80" r="15" fill="#10b981"/>
  <path d="M 40 75 Q 50 70 60 75 Q 55 85 45 85 Q 40 80 40 75" fill="#059669"/>
</svg>